PathFileType	4	(X/Y/Z)	c:/Users/goper/Files/vsCode/490R/osim_files/C08/C08_Slow_05.trc
DataRate	CameraRate	NumFrames	NumMarkers	Units                	OrigDataRate	OrigDataStartFrame	OrigNumFrames
250.00	250.00	8	36	mm	250.0	2071	2761
                Frame#	Time	LPSIS			LASIS			LTH1			LTH2			LTH3			LTH4			LLFE			LMFE			LSH1			LSH2			LSH3			LSH4			LLMAL			LMMAL			LCAL			LMTP5			LTOE			LMTP1			RPSIS			RASIS			RTH1			RTH2			RTH3			RTH4			RLFE			RMFE			RSH1			RSH2			RSH3			RSH4			RLMAL			RMMAL			RCAL			RMTP1			RTOE			RMTP5		
		X1	Y1	Z1	X2	Y2	Z2	X3	Y3	Z3	X4	Y4	Z4	X5	Y5	Z5	X6	Y6	Z6	X7	Y7	Z7	X8	Y8	Z8	X9	Y9	Z9	X10	Y10	Z10	X11	Y11	Z11	X12	Y12	Z12	X13	Y13	Z13	X14	Y14	Z14	X15	Y15	Z15	X16	Y16	Z16	X17	Y17	Z17	X18	Y18	Z18	X19	Y19	Z19	X20	Y20	Z20	X21	Y21	Z21	X22	Y22	Z22	X23	Y23	Z23	X24	Y24	Z24	X25	Y25	Z25	X26	Y26	Z26	X27	Y27	Z27	X28	Y28	Z28	X29	Y29	Z29	X30	Y30	Z30	X31	Y31	Z31	X32	Y32	Z32	X33	Y33	Z33	X34	Y34	Z34	X35	Y35	Z35	X36	Y36	Z36

2071	8.28000	-2961.40381	1044.66858	346.86591	-3182.95459	1013.89850	418.04538	-3126.61255	737.56995	490.04968	-3141.35181	662.54901	474.92688	-3154.30249	590.27002	466.47379	-3219.70825	684.05304	460.72507	-3165.22583	542.07745	457.21277	-3174.70581	533.31659	328.65463	-3121.07788	416.96780	472.81378	-3127.48096	370.45187	472.27777	-3176.32910	415.44223	465.36661	-3176.71118	371.48694	464.77368	-3123.46924	94.99612	407.27545	-3150.81104	108.05137	319.76083	-3064.55273	73.44984	348.32870	-3242.82495	44.81739	432.76199	-3305.74634	66.39211	377.25244	-3272.14746	49.11891	324.15637	-2958.90308	1039.12683	287.66547	-3151.24194	1007.49225	179.00308	0.00000	0.00000	0.00000	-3135.41895	661.34894	134.11618	-3145.82764	582.78485	129.38498	-3210.33081	678.27502	147.18674	-3157.98462	520.71307	141.51762	0.00000	0.00000	0.00000	0.00000	0.00000	0.00000	-3050.79053	458.97098	129.53635	0.00000	0.00000	0.00000	-3091.02588	421.41989	132.86035	-2831.06201	260.58948	185.90164	-2859.42407	232.04630	270.59729	-2782.44653	286.42374	261.21524	-2882.22607	96.15096	246.22798	-2907.04321	102.35622	193.41273	-2852.38696	129.32401	137.89526
2072	8.28400	-2965.21777	1045.13220	347.14795	-3186.79688	1014.28442	418.87115	-3129.49683	737.76050	490.35596	-3143.81641	662.67828	475.21707	-3156.28662	590.27911	466.65280	-3222.16675	683.71515	461.02219	-3167.08691	542.09644	457.43021	-3176.47070	533.40729	328.77533	-3122.42969	417.28342	472.99353	-3128.62085	370.67624	472.38742	-3177.72485	415.48026	465.42484	-3177.85449	371.51245	464.87796	-3123.61621	95.12033	407.21606	-3150.90942	108.09704	319.72867	-3064.61084	73.57792	348.29190	-3242.85205	44.77943	432.75659	-3305.85767	66.25470	377.24246	-3272.20532	49.06064	324.15973	-2962.14795	1039.83276	287.90439	-3155.21802	1008.29071	179.51402	0.00000	0.00000	0.00000	-3141.71460	662.26581	134.59059	-3155.55737	584.76813	129.43805	-3216.42188	679.64886	147.44394	-3165.52734	521.95190	141.87096	0.00000	0.00000	0.00000	-3083.86353	491.84897	142.40430	-3058.73096	460.00076	130.05928	0.00000	0.00000	0.00000	-3099.13794	422.65149	133.22511	-2840.09839	260.35193	186.77379	-2867.87085	232.25465	270.61758	-2790.62720	286.22293	261.46231	-2892.17700	96.38365	246.77800	-2917.00806	102.76166	194.02151	-2861.29858	129.39691	138.46870
2073	8.28800	-2968.99780	1045.56897	347.41061	-3190.59961	1014.69684	419.70120	-3132.24927	737.91260	490.63763	-3146.17236	662.76477	475.43304	-3158.16162	590.26129	466.81760	-3224.61938	683.43011	461.30630	-3168.72583	542.03894	457.56253	-3178.06665	533.45874	328.88391	-3123.74512	417.51736	473.01419	-3129.75781	370.92719	472.51773	-3179.01074	415.44229	465.52240	-3178.99585	371.47736	465.00381	-3123.97900	95.37720	407.12036	-3151.04175	108.15340	319.64426	-3064.65234	73.71515	348.25369	-3242.91504	44.76852	432.76059	-3305.94580	66.10126	377.23273	-3272.25342	48.98321	324.14880	-2966.64819	1040.13806	288.26385	-3159.20752	1009.12823	180.08263	0.00000	0.00000	0.00000	-3148.07812	663.20001	135.00476	-3162.51904	585.70422	130.31656	-3222.58179	681.11182	147.73206	-3173.01929	523.21588	142.24321	0.00000	0.00000	0.00000	0.00000	0.00000	0.00000	-3066.54126	460.86966	130.59941	0.00000	0.00000	0.00000	-3107.12476	423.67740	133.62228	-2849.48901	259.78436	187.04594	-2876.94043	232.14525	271.06729	-2799.38452	285.42899	262.07526	-2902.32324	96.46539	247.33980	-2927.08716	102.97094	194.60703	-2871.11133	129.16481	139.01892
2074	8.29200	-2972.82471	1045.96497	347.63177	-3194.40649	1015.13385	420.52402	-3134.99048	738.03619	490.88647	-3148.46802	662.84027	475.62155	-3160.11279	590.29260	466.94324	-3227.12207	683.11383	461.55179	-3170.43799	542.04785	457.66992	-3179.58691	533.43665	328.97845	-3125.00049	417.79135	473.14838	-3130.80200	371.07498	472.56879	-3180.25635	415.42477	465.63248	-3180.08472	371.51047	465.13181	-3123.89917	95.30466	407.08466	-3151.17896	108.22726	319.59995	-3064.25830	73.89826	348.18619	-3242.93262	44.74091	432.75510	-3306.03491	65.95293	377.20166	-3272.30884	48.92309	324.11816	-2969.82007	1040.76917	288.44666	-3163.20459	1009.98096	180.65945	0.00000	0.00000	0.00000	-3154.50244	664.21320	135.42458	-3169.30298	586.51782	131.25688	-3228.74072	682.58136	148.08659	-3180.49072	524.40802	142.59578	0.00000	0.00000	0.00000	0.00000	0.00000	0.00000	-3074.36304	461.69946	131.04655	0.00000	0.00000	0.00000	-3115.17188	424.74228	134.01031	-2859.86890	258.86893	188.59003	-2886.02881	231.83295	271.53348	-2808.10669	284.60498	262.40753	-2912.60254	96.38072	247.91740	-2937.43848	103.08405	195.15979	-2881.32544	128.73361	139.49948
2075	8.29600	-2976.60962	1046.36548	347.79288	-3198.16431	1015.57166	421.37094	-3137.75610	738.22565	491.12988	-3155.68530	664.75836	477.19965	-3161.96973	590.30487	466.96875	-3229.59644	682.82001	461.74701	-3172.14990	542.06110	457.80850	-3181.40771	533.48053	329.16504	-3126.19775	417.99188	473.10956	-3131.96362	371.38110	472.75012	-3181.45605	415.43005	465.71478	-3181.15234	371.52335	465.22733	-3124.05469	95.42471	407.02103	-3151.33154	108.29382	319.56348	-3064.78589	73.92011	348.18634	-3242.90747	44.70633	432.76932	-3306.13843	65.81192	377.17114	-3272.38037	48.85157	324.12439	-2974.28955	1041.11316	288.66629	-3167.17310	1010.82678	181.31615	-3135.46948	738.66241	128.85271	-3160.79077	665.12329	135.81854	-3176.17456	587.46014	132.11598	-3234.80469	683.97443	148.44717	-3187.87378	525.66064	142.99538	-3181.36572	496.97272	253.93427	-3106.79565	494.65182	143.90887	-3082.13208	462.46014	131.52339	0.00000	0.00000	0.00000	-3123.15186	425.56357	134.41750	-2868.86035	258.02768	189.13948	-2895.26538	231.31390	272.01340	-2816.47705	283.59460	262.79544	-2923.08276	96.13983	248.42630	-2947.94092	103.06609	195.75801	-2891.80981	128.14856	140.21417
2076	8.30000	-2980.44702	1046.73315	347.94324	-3201.93018	1016.04572	422.19196	-3140.40210	738.39056	491.32059	-3158.90991	665.44324	477.49744	-3163.94678	590.41718	467.08981	-3231.99756	682.53094	461.95428	-3173.71191	542.04193	457.89423	-3183.83936	533.59991	329.65594	-3127.43213	418.19055	473.21420	-3132.90015	371.53482	472.79044	-3182.55957	415.38736	465.79617	-3182.14185	371.54700	465.34344	-3124.19238	95.53571	406.97382	-3151.51611	108.38435	319.48947	-3064.92310	74.04834	348.11682	-3242.97217	44.68902	432.76480	-3306.22803	65.65778	377.14249	-3272.44995	48.79748	324.12689	-2977.40820	1041.65955	288.77148	-3171.22144	1011.70886	182.00291	0.00000	0.00000	0.00000	-3167.15259	666.13013	136.20383	-3183.15796	588.38202	132.85474	-3241.03833	685.51495	148.83232	-3193.82104	526.53632	143.57211	0.00000	0.00000	0.00000	0.00000	0.00000	0.00000	-3089.87549	463.06610	131.94264	0.00000	0.00000	0.00000	-3131.21582	426.48087	134.86751	-2878.04614	257.08881	189.61519	-2904.54297	230.68796	272.47440	-2825.38696	282.26419	263.26926	-2933.67700	95.74880	248.95306	-2958.55200	102.90714	196.34448	-2901.46851	127.54637	140.65472
2077	8.30400	-2984.26001	1047.06812	348.13583	-3205.65723	1016.53326	423.00299	-3143.13794	738.52563	491.54886	-3161.23438	665.57013	477.68106	-3165.65308	590.38715	467.13611	-3234.38306	682.23828	462.15714	-3175.37524	542.06885	458.02737	-3183.93433	533.56012	329.08481	-3128.46411	418.37039	473.26596	0.00000	0.00000	0.00000	-3183.66479	415.37769	465.88400	-3183.13403	371.53448	465.43799	-3124.30176	95.64594	406.90854	-3151.68628	108.44438	319.41351	-3065.01904	74.16614	348.07043	-3243.01416	44.66919	432.74997	-3306.34375	65.50660	377.13580	-3272.48535	48.70607	324.12949	-2981.95239	1041.95325	288.97940	-3175.24512	1012.56934	182.69789	0.00000	0.00000	0.00000	-3173.40796	667.08917	136.55548	-3190.22485	589.40656	133.44995	-3247.09424	686.93292	149.20895	-3203.66821	527.46265	144.09805	0.00000	0.00000	0.00000	-3121.68945	496.11584	144.95221	-3097.65259	463.59100	132.34334	0.00000	0.00000	0.00000	-3139.13232	427.21005	135.35486	-2883.83643	257.36765	188.54984	-2914.56152	229.76575	273.35504	-2833.71362	280.90421	263.58820	-2944.48999	95.24394	249.49225	-2969.37549	102.64406	196.90314	-2912.00537	126.74421	141.17438
2078	8.30800	-2988.06738	1047.35889	348.25388	-3209.37158	1017.03162	423.76468	-3145.78345	738.66052	491.70370	-3163.41357	665.61115	477.83408	-3167.53784	590.46124	467.15698	-3236.78857	681.92224	462.29037	-3177.03711	542.14545	458.15143	-3185.94482	533.84180	329.39636	-3129.50977	418.47745	473.25452	0.00000	0.00000	0.00000	-3184.71167	415.30734	465.94693	-3184.08984	371.51929	465.51407	-3124.46143	95.76070	406.84119	-3151.94043	108.59150	319.34506	-3064.57495	74.36226	347.94952	-3242.97974	44.64111	432.72806	-3306.45654	65.38344	377.12903	-3272.55054	48.60953	324.10654	-2985.05225	1042.47144	289.05731	-3179.26782	1013.41730	183.44748	0.00000	0.00000	0.00000	-3179.62231	668.02582	136.86613	-3197.24512	590.49847	133.87364	-3253.30811	688.49255	149.69342	-3210.94141	528.56232	144.55946	-3233.07617	516.95367	274.21814	0.00000	0.00000	0.00000	-3105.37280	464.08115	132.70422	-3173.47021	455.13434	147.00587	-3147.10571	428.01114	135.83965	-2894.79883	255.03886	190.20145	-2924.03076	228.79665	273.77393	-2843.92651	278.35614	264.44824	-2955.46826	94.64158	249.97446	-2980.30200	102.23495	197.43642	-2922.68384	125.80682	141.63695
